<svg width="22" height="22" viewBox="0 0 22 22" fill="none" xmlns="http://www.w3.org/2000/svg">
<path d="M22 9.04421C19.7514 9.04421 17.6669 8.41718 15.966 7.35197V15.0385C15.966 18.8777 12.3845 22 7.98299 22C6.28211 22 4.70422 21.5325 3.40807 20.7386C1.34977 19.4781 0 17.3936 0 15.0385C0 11.1994 3.58152 8.07617 7.98404 8.07617C8.34987 8.07617 8.70728 8.10275 9.05944 8.14401V9.03963V12.0052C8.71885 11.9126 8.35933 11.8585 7.98404 11.8585C5.9741 11.8585 4.3384 13.2849 4.3384 15.0385C4.3384 16.2596 5.13312 17.3202 6.29367 17.8528C6.79931 18.0848 7.37433 18.2177 7.98509 18.2177C9.94878 18.2177 11.5508 16.8555 11.6244 15.1577L11.6276 0H15.9649C15.9649 0.32818 16.0017 0.64811 16.0669 0.95979C16.3728 2.40085 17.3536 3.63748 18.7128 4.41027C19.6589 4.94837 20.7879 5.2628 21.9989 5.2628L22 9.04421Z" fill="white"/>
</svg>
